<svg width="40" height="30" xmlns="http://www.w3.org/2000/svg">
    <path d="M6.719 13.362c9.395-4.093 15.66-6.792 18.794-8.096 8.95-3.723 10.81-4.37 12.022-4.39.267-.005.863.06 1.25.374.325.265.415.622.458.873.043.25.096.822.054 1.269-.485 5.096-2.584 17.463-3.651 23.17-.452 2.415-1.342 3.225-2.203 3.304-1.871.173-3.293-1.236-5.105-2.425-2.837-1.86-4.44-3.017-7.193-4.831-3.182-2.097-1.119-3.25.695-5.133.474-.493 8.72-7.993 8.88-8.674.02-.085.038-.402-.15-.57-.189-.167-.467-.11-.667-.064-.285.065-4.816 3.06-13.595 8.985-1.286.883-2.45 1.314-3.495 1.291-1.15-.025-3.364-.65-5.01-1.185-2.018-.657-3.622-1.003-3.482-2.118.073-.58.872-1.173 2.398-1.78Z" fill="#FF00E5"/>
    <path d="M2.719 13.362c9.395-4.093 15.66-6.792 18.794-8.096 8.95-3.723 10.81-4.37 12.022-4.39.267-.005.863.06 1.25.374.325.265.415.622.458.873.043.25.096.822.054 1.269-.485 5.096-2.584 17.463-3.651 23.17-.452 2.415-1.342 3.225-2.203 3.304-1.872.173-3.293-1.236-5.105-2.425-2.837-1.86-4.44-3.017-7.193-4.831-3.182-2.097-1.119-3.25.695-5.133.474-.493 8.72-7.993 8.88-8.674.02-.085.038-.402-.15-.57-.189-.167-.467-.11-.667-.064-.285.065-4.816 3.06-13.594 8.985-1.287.883-2.452 1.314-3.496 1.291-1.15-.025-3.364-.65-5.01-1.185-2.018-.657-3.622-1.003-3.482-2.118.073-.58.872-1.173 2.398-1.78Z" fill="#fff"/>
</svg>
